<svg id="svg" version="1.1" xmlns="http://www.w3.org/2000/svg" style="display: block;" viewBox="200 200 600 600"><path d="M0 0C4.473874 2.279143 6.858686 4.488939 9 9 9.282382 11.747643 9.403945 14.264465 9.37854 17.008545 9.38307 17.809665 9.3876 18.610786 9.392268 19.436183 9.403885 22.117777 9.394247 24.798872 9.384766 27.480469 9.388871 29.404107 9.394332 31.327743 9.401047 33.251373 9.412773 37.392364 9.415256 41.533221 9.41069 45.674225 9.403886 52.22063 9.419739 58.766859 9.439087 65.313232 9.480179 80.390942 9.491491 95.468646 9.502617 110.546402 9.513119 124.36513 9.529872 138.183774 9.570713 152.00245 9.58909 158.511632 9.592954 165.020614 9.585777 171.529816 9.584257 175.577002 9.595028 179.624087 9.609156 183.671246 9.613164 185.549388 9.612024 187.427549 9.605383 189.305683 9.597019 191.867854 9.606972 194.429326 9.62146 196.991455 9.614566 197.736106 9.607672 198.480757 9.600569 199.247973 9.64937 203.67239 10.267676 206.487563 13 210 17.686618 213.157547 21.988977 213.419013 27.480469 213.353027 28.725537 213.356268 28.725537 213.356268 29.995758 213.359573 31.789785 213.36265 33.583834 213.359084 35.377838 213.34956 38.219816 213.335781 41.061098 213.342282 43.903076 213.354401 51.980028 213.38531 60.056815 213.380474 68.133789 213.360352 73.08163 213.349428 78.028947 213.362635 82.976715 213.390247 84.858527 213.395682 86.740392 213.391638 88.622162 213.37785 91.255199 213.358776 93.886523 213.370214 96.519531 213.388184 97.292697 213.374845 98.065862 213.361506 98.862457 213.347763 104.711177 213.436336 107.054999 214.98337 111 219 113.200594 222.540086 113.390139 225.796616 112.720596 229.916153 110.083686 237.541667 100.988448 244.157533 95.410156 249.722656 94.5068 250.626969 93.603445 251.531281 92.672714 252.462997 90.772039 254.364349 88.870404 256.264676 86.967041 258.16333 84.548816 260.575859 82.13511 262.992851 79.722726 265.411218 77.391816 267.746646 75.05706 270.078222 72.722656 272.410156 71.867207 273.26763 71.011758 274.125103 70.130386 275.00856 66.520608 278.604423 62.90482 282.139162 59.040527 285.46167 53.999431 289.8001 49.332619 294.505114 44.628906 299.203125 43.656315 300.172495 42.683653 301.141793 41.710922 302.111023 39.689713 304.126293 37.670531 306.143569 35.652588 308.162109 33.06631 310.74849 30.473166 313.327871 27.878297 315.905628 25.875208 317.897619 23.876659 319.894118 21.879377 321.89193 20.461493 323.308063 19.039073 324.719649 17.616592 326.131165 16.761576 326.989257 15.90656 327.84735 15.025635 328.731445 14.27033 329.485325 13.515025 330.239205 12.736832 331.01593 9.266813 334.979907 9.855459 339.436542 9.861969 344.413422 9.859148 345.282254 9.856326 346.151086 9.85342 347.046246 9.845061 349.968828 9.843734 352.891372 9.842285 355.813965 9.837618 357.904791 9.832475 359.995617 9.826889 362.086441 9.8156 366.594658 9.80717 371.102869 9.80077 375.611095 9.790103 382.736981 9.769862 389.86282 9.74765 396.988678 9.68568 417.253823 9.631686 437.518965 9.598633 457.78418 9.580305 468.972016 9.551393 480.159772 9.510628 491.347549 9.48953 497.270491 9.474097 503.193332 9.471821 509.116314 9.469678 514.686245 9.453846 520.255967 9.427431 525.825834 9.420223 527.871673 9.418144 529.917536 9.421534 531.963385 9.425418 534.753376 9.411008 537.542695 9.391998 540.332611 9.397528 541.144773 9.403058 541.956934 9.408755 542.793706 9.337679 548.824552 7.871356 551.901814 3.9375 556.3125-.45881 558.83804-4.068483 558.999892-9 558-10.922419 556.73012-10.922419 556.73012-12.730133 555.041046-13.762576 554.08475-13.762576 554.08475-14.815876 553.109135-15.536637 552.41312-16.257398 551.717106-17 551-18.095779 549.945419-18.095779 549.945419-19.213696 548.869534-21.661878 546.482158-24.085808 544.072132-26.505371 541.655762-27.420162 540.745935-28.334954 539.836109-29.277466 538.898712-31.763011 536.426157-34.24533 533.950388-36.726623 531.473566-38.279389 529.923747-39.832734 528.37451-41.38625 526.825443-46.254799 521.970522-51.121378 517.113638-55.985057 512.253837-61.586521 506.656868-67.194492 501.066528-72.808128 495.481768-77.16008 491.151424-81.506258 486.81534-85.848088 482.474848-88.436684 479.887298-91.027644 477.302227-93.624645 474.72311-96.515115 471.852167-99.393528 468.969423-102.270996 466.085449-103.130207 465.235453-103.989417 464.385458-104.874664 463.509705-105.656783 462.722017-106.438901 461.934329-107.24472 461.122772-107.925675 460.443285-108.606629 459.763797-109.308218 459.063719-112.311228 455.400499-113.249577 451.971454-113.251556 447.294312-113.256939 446.377521-113.262322 445.460731-113.267868 444.516159-113.263744 443.52276-113.25962 442.529361-113.255371 441.505859-113.258992 440.450022-113.262612 439.394184-113.266342 438.306351-113.273229 436.016849-113.275743 433.727332-113.274395 431.43782-113.27343 427.815001-113.28637 424.192479-113.303375 420.569702-113.349657 410.270612-113.374264 399.971553-113.380859 389.672363-113.385868 383.370614-113.410083 377.069176-113.446186 370.767532-113.455997 368.365767-113.458309 365.963959-113.453014 363.56218-113.445961 360.205827-113.463191 356.850405-113.48584 353.494141-113.477667 352.500742-113.469495 351.507343-113.461075 350.483841-113.511665 346.276044-113.614875 343.678788-115.719635 339.969116-120.749496 335.625785-125.490354 335.709107-131.841797 335.72876-133.162207 335.72092-133.162207 335.72092-134.509293 335.712921-136.415728 335.7027-138.322191 335.696904-140.228653 335.69504-143.246602 335.691372-146.264224 335.674636-149.282104 335.654282-157.860697 335.598898-166.439336 335.568159-175.018066 335.543701-180.269411 335.527828-185.520521 335.497615-190.771744 335.458937-192.771586 335.447288-194.771471 335.441356-196.771347 335.441256-199.567214 335.441064-202.362436 335.4228-205.158203 335.400635-205.983289 335.405212-206.808374 335.409789-207.658463 335.414505-212.254985 335.356561-215.270955 334.98016-219 332-221.898792 327.601833-222.707496 324.217783-222 319-218.71388 311.779663-213.926082 305.235613-209.5 298.6875-207.880383 296.277668-206.264206 293.865538-204.648438 291.453125-204.209502 290.798236-203.770566 290.143347-203.318329 289.468613-197.822811 281.258713-192.401415 272.99996-186.972412 264.746002-176.699854 249.129291-166.382897 233.54357-156 218-146.448181 203.700465-136.951575 189.365988-127.5 175-117.474556 159.761754-107.391996 144.563263-97.260254 129.395508-88.289574 115.963393-79.377826 102.493646-70.5 89-59.627407 72.47534-48.693053 55.993083-37.710938 39.541016-37.173147 38.73514-36.635356 37.929265-36.081268 37.098969-35.017222 35.506442-33.951593 33.914973-32.884308 32.324615-29.979352 27.991446-27.11261 23.63731-24.284668 19.253418-23.662731 18.297976-23.040793 17.342534-22.400009 16.358139-21.203802 14.519218-20.016693 12.674336-18.840347 10.822647-14.093367 3.560416-9.308503-1.839405 0 0Z" transform="translate(555 221)" style="fill: #de8553"/></svg>